<svg xmlns="http://www.w3.org/2000/svg" viewBox="0 0 800 900">
  <rect width="800" height="900" fill="#E2E8DD"/>
  <circle cx="400" cy="430" r="210" fill="#A7B49D" opacity=".35"/>
  <g fill="#A7B49D">
    <ellipse cx="400" cy="310" rx="85" ry="150"/>
    <ellipse cx="400" cy="550" rx="85" ry="150"/>
    <ellipse cx="280" cy="430" rx="150" ry="85"/>
    <ellipse cx="520" cy="430" rx="150" ry="85"/>
  </g>
  <circle cx="400" cy="430" r="55" fill="#F7E7C9"/>
  <path d="M400 480 C380 620 410 730 360 820" fill="none" stroke="#73836F" stroke-width="20"/>
  <path d="M390 650 C300 590 250 630 230 690 C310 700 355 685 390 650Z" fill="#8EA18A"/>
  <path d="M405 710 C490 650 550 690 570 750 C490 755 440 745 405 710Z" fill="#8EA18A"/>
</svg>